<?xml version="1.0" encoding="UTF-8" standalone="no"?>
<!DOCTYPE svg PUBLIC "-//W3C//DTD SVG 1.1//EN"
 "http://www.w3.org/Graphics/SVG/1.1/DTD/svg11.dtd">
<!-- Generated by graphviz version 11.0.0 (20240428.1522)
 -->
<!-- Pages: 1 -->
<svg width="174pt" height="476pt"
 viewBox="0.00 0.00 174.00 476.00" xmlns="http://www.w3.org/2000/svg" xmlns:xlink="http://www.w3.org/1999/xlink">
<g id="graph0" class="graph" transform="scale(1 1) rotate(0) translate(4 472)">
<polygon fill="white" stroke="none" points="-4,4 -4,-472 170,-472 170,4 -4,4"/>
<!-- /a -->
<g id="node1" class="node">
<title>/a</title>
<ellipse fill="none" stroke="black" cx="83" cy="-450" rx="27" ry="18"/>
<text text-anchor="middle" x="83" y="-444.57" font-family="Times New Roman,serif" font-size="14.00">/a</text>
</g>
<!-- /a/a2 -->
<g id="node2" class="node">
<title>/a/a2</title>
<ellipse fill="none" stroke="black" cx="83" cy="-378" rx="28.11" ry="18"/>
<text text-anchor="middle" x="83" y="-372.57" font-family="Times New Roman,serif" font-size="14.00">/a/a2</text>
</g>
<!-- /a&#45;&gt;/a/a2 -->
<g id="edge1" class="edge">
<title>/a&#45;&gt;/a/a2</title>
<path fill="none" stroke="black" d="M83,-431.7C83,-424.41 83,-415.73 83,-407.54"/>
<polygon fill="black" stroke="black" points="86.5,-407.62 83,-397.62 79.5,-407.62 86.5,-407.62"/>
</g>
<!-- /a/a2/a3 -->
<g id="node3" class="node">
<title>/a/a2/a3</title>
<ellipse fill="none" stroke="black" cx="83" cy="-306" rx="39.09" ry="18"/>
<text text-anchor="middle" x="83" y="-300.57" font-family="Times New Roman,serif" font-size="14.00">/a/a2/a3</text>
</g>
<!-- /a/a2&#45;&gt;/a/a2/a3 -->
<g id="edge2" class="edge">
<title>/a/a2&#45;&gt;/a/a2/a3</title>
<path fill="none" stroke="black" d="M83,-359.7C83,-352.41 83,-343.73 83,-335.54"/>
<polygon fill="black" stroke="black" points="86.5,-335.62 83,-325.62 79.5,-335.62 86.5,-335.62"/>
</g>
<!-- /a/a2/a3/a4 -->
<g id="node4" class="node">
<title>/a/a2/a3/a4</title>
<ellipse fill="none" stroke="black" cx="83" cy="-234" rx="50.07" ry="18"/>
<text text-anchor="middle" x="83" y="-228.57" font-family="Times New Roman,serif" font-size="14.00">/a/a2/a3/a4</text>
</g>
<!-- /a/a2/a3&#45;&gt;/a/a2/a3/a4 -->
<g id="edge3" class="edge">
<title>/a/a2/a3&#45;&gt;/a/a2/a3/a4</title>
<path fill="none" stroke="black" d="M83,-287.7C83,-280.41 83,-271.73 83,-263.54"/>
<polygon fill="black" stroke="black" points="86.5,-263.62 83,-253.62 79.5,-263.62 86.5,-263.62"/>
</g>
<!-- /a/a2/a3/a4/a5 -->
<g id="node5" class="node">
<title>/a/a2/a3/a4/a5</title>
<ellipse fill="none" stroke="black" cx="83" cy="-162" rx="61.04" ry="18"/>
<text text-anchor="middle" x="83" y="-156.57" font-family="Times New Roman,serif" font-size="14.00">/a/a2/a3/a4/a5</text>
</g>
<!-- /a/a2/a3/a4&#45;&gt;/a/a2/a3/a4/a5 -->
<g id="edge4" class="edge">
<title>/a/a2/a3/a4&#45;&gt;/a/a2/a3/a4/a5</title>
<path fill="none" stroke="black" d="M83,-215.7C83,-208.41 83,-199.73 83,-191.54"/>
<polygon fill="black" stroke="black" points="86.5,-191.62 83,-181.62 79.5,-191.62 86.5,-191.62"/>
</g>
<!-- /a/a2/a3/a4/a5/a6 -->
<g id="node6" class="node">
<title>/a/a2/a3/a4/a5/a6</title>
<ellipse fill="none" stroke="black" cx="83" cy="-90" rx="72.02" ry="18"/>
<text text-anchor="middle" x="83" y="-84.58" font-family="Times New Roman,serif" font-size="14.00">/a/a2/a3/a4/a5/a6</text>
</g>
<!-- /a/a2/a3/a4/a5&#45;&gt;/a/a2/a3/a4/a5/a6 -->
<g id="edge5" class="edge">
<title>/a/a2/a3/a4/a5&#45;&gt;/a/a2/a3/a4/a5/a6</title>
<path fill="none" stroke="black" d="M83,-143.7C83,-136.41 83,-127.73 83,-119.54"/>
<polygon fill="black" stroke="black" points="86.5,-119.62 83,-109.62 79.5,-119.62 86.5,-119.62"/>
</g>
<!-- /a/a2/a3/a4/a5/a6/a7 -->
<g id="node7" class="node">
<title>/a/a2/a3/a4/a5/a6/a7</title>
<ellipse fill="none" stroke="black" cx="83" cy="-18" rx="83" ry="18"/>
<text text-anchor="middle" x="83" y="-12.57" font-family="Times New Roman,serif" font-size="14.00">/a/a2/a3/a4/a5/a6/a7</text>
</g>
<!-- /a/a2/a3/a4/a5/a6&#45;&gt;/a/a2/a3/a4/a5/a6/a7 -->
<g id="edge6" class="edge">
<title>/a/a2/a3/a4/a5/a6&#45;&gt;/a/a2/a3/a4/a5/a6/a7</title>
<path fill="none" stroke="black" d="M83,-71.7C83,-64.41 83,-55.73 83,-47.54"/>
<polygon fill="black" stroke="black" points="86.5,-47.62 83,-37.62 79.5,-47.62 86.5,-47.62"/>
</g>
</g>
</svg>
